# xmcd
#
# Track frame offsets:
#	150
#	22270
#	43073
#	65340
#	85700
#	107025
#	128845
#	150770
#	173250
#	194295
#
# Disc length: 2872 seconds
#
# Revision: 7
# Processed by: cddbd v1.5.2PL0 Copyright (c) Steve Scherf et al.
# Submitted via: EasyCDDAExtractor 15.3.0.1
#
DISCID=720b360a
DTITLE=Luis Enrique
DYEAR=1994
DGENRE=Latin
TTITLE0=Romanticos Al Rescate
TTITLE1=Asi Son Las Cosas
TTITLE2=Que Hablen
TTITLE3=La Primera Noche
TTITLE4=Asi Es La Vida
TTITLE5=Quien Eres Tu
TTITLE6=Cuando Nos Tienta El Amor
TTITLE7=Que Seria De La Vida
TTITLE8=Donde Esta Tu Corazon
TTITLE9=Nunca Te Olvide
EXTD=Latin/Salsa YEAR: 1994 ID3G: 86
EXTT0=
EXTT1=
EXTT2=
EXTT3=
EXTT4=
EXTT5=
EXTT6=
EXTT7=
EXTT8=
EXTT9=
PLAYORDER=
